<?xml version="1.0" encoding="UTF-8" standalone="no"?>
<svg
   width="1672"
   height="433"
   viewBox="0 0 1672 433"
   version="1.1"
   id="svg38"
   sodipodi:docname="BannerDEFINITIVO.svg"
   inkscape:version="1.4.2 (f4327f4, 2025-05-13)"
   xmlns:inkscape="http://www.inkscape.org/namespaces/inkscape"
   xmlns:sodipodi="http://sodipodi.sourceforge.net/DTD/sodipodi-0.dtd"
   xmlns="http://www.w3.org/2000/svg"
   xmlns:svg="http://www.w3.org/2000/svg">
  <defs
     id="defs38" />
  <sodipodi:namedview
     id="namedview38"
     pagecolor="#ffffff"
     bordercolor="#000000"
     borderopacity="0.25"
     inkscape:showpageshadow="2"
     inkscape:pageopacity="0.0"
     inkscape:pagecheckerboard="0"
     inkscape:deskcolor="#d1d1d1"
     inkscape:zoom="4"
     inkscape:cx="163.375"
     inkscape:cy="201.5"
     inkscape:window-width="928"
     inkscape:window-height="1040"
     inkscape:window-x="52"
     inkscape:window-y="0"
     inkscape:window-maximized="0"
     inkscape:current-layer="g38" />
  <clipPath
     id="cl_3">
    <rect
       x="4.5776367e-05"
       y="6.1035156e-05"
       width="1672.0001"
       height="433"
       id="rect1" />
  </clipPath>
  <g
     clip-path="url(#cl_3)"
     id="g38">
    <path
       id="path1"
       style="opacity:1;fill:#fe5500;fill-opacity:1"
       d="M 988.98045 286.69523 C 964.44345 348.22123 942.27271 410.77142 918.23271 472.56542 L 956.53261 472.63139 C 962.67261 458.52639 968.34775 444.22247 973.54975 429.74447 C 991.86875 429.95247 1010.1894 430.01232 1028.5094 429.92332 L 1043.4596 429.73714 C 1048.1696 444.08514 1053.1498 458.34106 1058.4098 472.49506 C 1071.5498 472.42106 1084.7006 472.42152 1097.8406 472.49652 L 1029.0997 286.87554 C 1015.7297 286.93354 1002.3504 286.87323 988.98045 286.69523 z M 1009.5703 340.4655 C 1012.5703 343.3345 1027.2996 387.45949 1029.9596 395.10949 L 1009.96 395.19159 L 988.92479 395.2253 C 994.50279 376.9983 1002.1003 358.0355 1009.5703 340.4655 z "
       transform="matrix(1.33333 0 0 1.33231 -66.6666 -263.797)" />
    <path
       fill="#FE5500"
       transform="matrix(1.33333 0 0 1.33231 -66.6666 -263.797)"
       d="M179.124 206.087C159.936 236.562 185.185 254.547 196.928 280.929C200.04 287.922 200.522 294.417 201.164 301.917C206.186 294.179 207.619 291.306 210.565 282.569C238.36 309.794 237.542 342.61 220.537 375.786C216.739 383.197 213.167 384.852 205.784 386.921C176.081 396.542 159.6 394.823 129.936 388.168C124.896 386.966 119.105 386.189 115.782 382.059C101.067 363.775 98.2283 336.515 106.63 314.867C110.885 303.905 116.134 299.37 124.159 291.739C122.155 302.665 122.203 307.286 124.545 318.131C127.895 312.679 139.923 295.763 141.121 291.142C145.94 272.541 133.485 258.458 143.652 237.782C152.318 220.161 161.111 212.874 179.124 206.087Z"
       data-index="3"
       style="opacity: 1;"
       id="path3" />
    <path
       fill="#2D2C2C"
       transform="matrix(1.33333 0 0 1.33231 -66.6666 -263.797)"
       d="M135.307 356.681C141.654 353.238 172.961 352.553 180.529 353.809C185.731 353.971 195.27 353.637 199.2 356.624C200.293 358.18 200.29 358.564 200.56 360.466L198.37 358.493C197.668 360.323 198.235 361.242 197.613 363.133C197.966 365.8 199.079 371.17 200.322 373.461C202.003 378.003 203.824 382.492 205.784 386.921C176.081 396.542 159.6 394.823 129.936 388.168C132.202 383.887 134.218 378.298 135.563 373.641C137.107 369.718 138.503 363.045 138.221 358.799C137.48 358.413 136.045 357.246 135.307 356.681Z"
       data-index="4"
       style="opacity:1;fill:#747272;fill-opacity:1"
       id="path4" />
    <path
       fill="#DA6013"
       transform="matrix(1.33333 0 0 1.33231 -66.6666 -263.797)"
       d="M135.307 356.681C141.654 353.238 172.961 352.553 180.529 353.809C177.543 354.544 175.407 354.658 172.338 354.906L175.854 355.191C172.323 355.38 163.17 355.544 160.399 356.397C155.734 356.638 141.69 356.983 138.221 358.799C137.48 358.413 136.045 357.246 135.307 356.681Z"
       data-index="5"
       style="opacity: 1;"
       id="path5" />
    <path
       fill="#C35B16"
       transform="matrix(1.33333 0 0 1.33231 -66.6666 -263.797)"
       d="M180.529 353.809C185.731 353.971 195.27 353.637 199.2 356.624C200.293 358.18 200.29 358.564 200.56 360.466L198.37 358.493C197.668 360.323 198.235 361.242 197.613 363.133C197.152 361.213 196.96 360.498 196.169 358.696C192.775 356.147 166.093 356.45 160.399 356.397C163.17 355.544 172.323 355.38 175.854 355.191L172.338 354.906C175.407 354.658 177.543 354.544 180.529 353.809Z"
       data-index="6"
       id="path6" />
    <path
       fill="#2D2C2C"
       transform="matrix(1.33333 0 0 1.33231 -66.6666 -263.797)"
       d="M157.12 341.839C163.334 341.832 171.503 341.572 177.555 341.866C179.372 342.521 180.505 343.184 182.324 342.725C188.663 342.401 195.219 343.438 201.473 344.491L203.452 347.491C209.077 348.475 220.106 349.82 218.302 358.459C217.189 363.785 211.195 368.238 206.744 370.839C205.643 371.493 204.519 372.108 203.374 372.682C202.102 372.76 201.246 372.637 200.322 373.461C199.079 371.17 197.966 365.8 197.613 363.133C198.235 361.242 197.668 360.323 198.37 358.493L200.56 360.466C200.29 358.564 200.293 358.18 199.2 356.624C195.27 353.637 185.731 353.971 180.529 353.809C172.961 352.553 141.654 353.238 135.307 356.681C136.045 357.246 137.48 358.413 138.221 358.799C138.503 363.045 137.107 369.718 135.563 373.641L132.544 372.643C127.409 369.531 118.806 364.517 117.449 358.073C115.591 349.25 127.927 348.21 133.821 347.217C133.732 345.428 133.625 345.109 134.176 343.451L135.196 344.262L153.913 341.836L157.12 341.839Z"
       data-index="7"
       style="opacity:1;fill:#747171;fill-opacity:1"
       id="path7" />
    <path
       fill="#DA6013"
       transform="matrix(1.33333 0 0 1.33231 -66.6666 -263.797)"
       d="M157.12 341.839C163.334 341.832 171.503 341.572 177.555 341.866C179.372 342.521 180.505 343.184 182.324 342.725C188.663 342.401 195.219 343.438 201.473 344.491L203.452 347.491C176.816 343.619 160.29 344.159 133.821 347.217C133.732 345.428 133.625 345.109 134.176 343.451L135.196 344.262L153.913 341.836L157.12 341.839Z"
       data-index="8"
       id="path8" />
    <path
       fill="#DA6013"
       transform="matrix(1.33333 0 0 1.33231 -66.6666 -263.797)"
       d="M135.307 356.681C136.045 357.246 137.48 358.413 138.221 358.799C138.503 363.045 137.107 369.718 135.563 373.641L132.544 372.643C133.814 369.666 134.955 360.226 135.307 356.681Z"
       data-index="9"
       style="opacity: 1;"
       id="path9" />
    <path
       fill="#DA6013"
       transform="matrix(1.33333 0 0 1.33231 -66.6666 -263.797)"
       d="M197.613 363.133C198.235 361.242 197.668 360.323 198.37 358.493L200.56 360.466C200.886 363.387 201.969 370.116 203.374 372.682C202.102 372.76 201.246 372.637 200.322 373.461C199.079 371.17 197.966 365.8 197.613 363.133Z"
       data-index="10"
       id="path10" />
    <path
       fill="#2D2C2C"
       transform="matrix(1.33333 0 0 1.33231 -66.6666 -263.797)"
       d="M167.005 303.917C170.764 305.711 173.992 307.523 177.608 309.557C178.411 310.071 179.749 311.014 180.575 311.286C181.473 312.288 184.291 315.663 185.268 316.026C185.289 320.786 184.232 325.15 183.304 329.812C182.324 334.026 181.53 336.978 181.288 341.329C181.515 341.651 182.077 342.505 182.324 342.725C180.505 343.184 179.372 342.521 177.555 341.866C171.503 341.572 163.334 341.832 157.12 341.839L153.913 341.836C151.03 321.207 142.741 319.186 162.861 306.437L167.005 303.917Z"
       data-index="11"
       id="path11"
       style="fill:#7c6e6a;fill-opacity:1" />
    <path
       fill="#C35B16"
       transform="matrix(1.33333 0 0 1.33231 -66.6666 -263.797)"
       d="M167.005 303.917C170.764 305.711 173.992 307.523 177.608 309.557C178.411 310.071 179.749 311.014 180.575 311.286C181.473 312.288 184.291 315.663 185.268 316.026C185.289 320.786 184.232 325.15 183.304 329.812C182.789 326.774 183.291 325.987 181.398 324.278C181.892 321.914 182.202 319.106 182.528 316.679C172.985 316.534 169.136 309.415 162.469 310.108C159.67 312.164 154.768 315.547 152.442 317.866C153.394 325.977 155.175 333.91 157.12 341.839L153.913 341.836C151.03 321.207 142.741 319.186 162.861 306.437L167.005 303.917Z"
       data-index="12"
       id="path12" />
    <path
       fill="#413631"
       transform="matrix(1.33333 0 0 1.33231 -66.6666 -263.797)"
       d="M162.469 310.108L167.645 306.97C172.272 309.593 178.743 313.051 182.528 316.679C172.985 316.534 169.136 309.415 162.469 310.108Z"
       data-index="13"
       id="path13"
       style="fill:#91796e;fill-opacity:1" />
    <path
       fill="#DA6013"
       transform="matrix(1.33333 0 0 1.33231 -66.6666 -263.797)"
       d="M181.398 324.278C183.291 325.987 182.789 326.774 183.304 329.812C182.324 334.026 181.53 336.978 181.288 341.329C181.515 341.651 182.077 342.505 182.324 342.725C180.505 343.184 179.372 342.521 177.555 341.866C178.369 339.801 180.536 327.888 181.398 324.278Z"
       data-index="14"
       id="path14" />
    <path
       fill="#413631"
       transform="matrix(1.33333 0 0 1.33231 -66.6666 -263.797)"
       d="M134.176 343.451C135.315 329.155 138.661 313.655 152.742 306.449C154.786 305.404 155.953 304.367 158.335 303.923L158.77 304.981C160.13 305.476 161.494 305.962 162.861 306.437C142.741 319.186 151.03 321.207 153.913 341.836L135.196 344.262L134.176 343.451Z"
       data-index="15"
       id="path15"
       style="fill:#7c6e6a;fill-opacity:1" />
    <path
       fill="#C35B16"
       transform="matrix(1.33333 0 0 1.33231 -66.6666 -263.797)"
       d="M147.379 316.318L147.863 316.945C146.57 321.616 143.092 329.875 141.308 335.574C141.074 335.348 140.577 334.399 140.427 334.135C140.355 328.902 144.132 320.479 147.379 316.318Z"
       data-index="16"
       id="path16" />
    <defs
       id="defs17">
      <linearGradient
         id="gradient_0"
         gradientUnits="userSpaceOnUse"
         x1="197.67831"
         y1="317.58356"
         x2="182.8204"
         y2="340.4996">
        <stop
           offset="0"
           stop-color="#443129"
           id="stop16" />
        <stop
           offset="1"
           stop-color="#3B3D3D"
           id="stop17" />
      </linearGradient>
    </defs>
    <path
       fill="url(#gradient_0)"
       transform="matrix(1.33333 0 0 1.33231 -66.6666 -263.797)"
       d="M185.127 307.99C198.944 315.757 199.979 330.408 201.473 344.491C195.219 343.438 188.663 342.401 182.324 342.725C182.077 342.505 181.515 341.651 181.288 341.329C181.53 336.978 182.324 334.026 183.304 329.812C184.232 325.15 185.289 320.786 185.268 316.026C184.291 315.663 181.473 312.288 180.575 311.286C179.749 311.014 178.411 310.071 177.608 309.557C179.646 307.988 182.406 308.189 185.127 307.99Z"
       data-index="17"
       style="opacity:1;fill:#7c6e6a;fill-opacity:1"
       id="path17" />
    <path
       fill="#C35B16"
       transform="matrix(1.33333 0 0 1.33231 -66.6666 -263.797)"
       d="M186.481 316.09C187.806 316.289 188.122 316.278 189.358 316.906C193.635 326.098 194.354 327.189 195.485 337.038C192.015 330.127 190.374 323.098 186.481 316.09Z"
       data-index="18"
       id="path18" />
    <path
       fill="#2D2C2C"
       transform="matrix(1.33333 0 0 1.33231 -66.6666 -263.797)"
       d="M180.575 311.286C180.637 310.01 180.857 310.476 180.31 309.607C181.728 309.201 184.04 309.98 185.59 310.353C188.11 312.743 189.65 313.36 189.358 316.906C188.122 316.278 187.806 316.289 186.481 316.09L185.268 316.026C184.291 315.663 181.473 312.288 180.575 311.286Z"
       data-index="19"
       id="path19"
       style="fill:#91796e;fill-opacity:1" />
    <path
       fill="#2D2C2C"
       transform="matrix(1.33333 0 0 1.33231 -66.6666 -263.797)"
       d="M158.335 303.923C163.442 299.815 163.565 292.432 173.18 299.748C172.079 301.601 168.862 303.316 167.005 303.917L162.861 306.437C161.494 305.962 160.13 305.476 158.77 304.981L158.335 303.923Z"
       data-index="20"
       id="path20"
       style="fill:#91796e;fill-opacity:1" />
    <path
       fill="#413631"
       d="M173.18 299.748C176.626 304.447 180.382 304.901 185.127 307.99C182.406 308.189 179.646 307.988 177.608 309.557C173.992 307.523 170.764 305.711 167.005 303.917C168.862 303.316 172.079 301.601 173.18 299.748Z"
       data-index="21"
       id="path21"
       style="fill:#747171;fill-opacity:1"
       transform="matrix(1.33333 0 0 1.33231 -66.6666 -263.797)" />
    <path
       id="path22"
       style="opacity:1;visibility:visible;fill:#2d2c2c;fill-opacity:1"
       d="M 471.88345 336.00456 C 469.86201 336.01282 467.81378 336.12265 465.74428 336.33733 C 426.69528 340.49233 402.30641 373.48146 406.48241 411.97546 C 408.56941 431.13546 418.13515 448.69814 433.10015 460.83914 C 446.64615 471.70514 464.00397 476.63849 481.23797 474.52249 C 497.69597 472.54549 512.68691 464.08755 522.89091 451.02155 C 525.51091 447.68855 527.48795 444.4817 529.51495 440.7627 L 519.26541 436.09945 C 512.56441 433.19445 505.8465 430.32575 499.1135 427.49275 C 490.2175 434.94075 481.7782 442.46253 469.3522 441.11453 C 454.2532 439.47653 446.822 429.32507 442.941 416.02007 L 534.8426 416.29274 C 535.4806 406.46774 535.6426 397.73105 533.4466 388.06405 C 526.72003 358.4578 502.20508 335.88065 471.88345 336.00456 z M 467.45961 368.9786 C 483.97761 368.4576 492.28013 374.02461 498.60813 389.26761 L 476.76579 389.21337 L 444.2037 389.18698 C 450.2667 376.64898 453.80661 372.7496 467.45961 368.9786 z "
       transform="matrix(1.33333 0 0 1.33231 -66.6666 -263.797)" />
    <path
       id="path24"
       style="opacity:1;fill:#2b2b2b;fill-opacity:1"
       d="M 791.65232 336.35346 C 751.56132 339.66746 724.40154 369.98709 727.96954 410.52709 C 729.78454 429.85309 739.13495 447.68673 753.99695 460.16773 C 767.74595 471.63073 783.60868 476.2264 801.34668 474.5694 C 817.97068 473.0574 833.26736 464.86115 843.73936 451.85715 C 846.87336 448.04215 848.50124 445.33904 850.87024 441.02804 L 845.01232 438.05065 C 836.56332 433.93765 828.88769 430.39562 819.91069 427.32562 C 812.68369 435.17362 806.67735 440.57156 795.17235 441.04856 C 787.34535 441.39856 779.71414 438.54692 774.03314 433.14992 C 768.68314 428.14492 766.3512 423.05086 764.4252 416.17986 L 857.00649 416.14761 C 856.89949 403.32661 857.35351 391.85437 852.58851 379.67137 C 842.76351 354.54737 819.60232 335.26646 791.65232 336.35346 z M 794.01365 368.93462 C 807.36665 369.58414 813.85002 375.40247 820.66802 389.17672 L 799.6416 389.15619 C 789.3696 389.18919 775.77402 389.51929 765.80802 388.67829 C 771.44102 377.44029 776.33558 373.1624 787.84958 368.9654 C 790.05858 368.8554 792.10608 368.84183 794.01365 368.93462 z "
       transform="matrix(1.33333 0 0 1.33231 -66.6666 -263.797)" />
    <path
       id="path26"
       style="opacity:1;fill:#ae1513;fill-opacity:1"
       d="m 197.31978,257.11198 c 2.257,4.92 4.41609,9.88338 6.47609,14.88838 15.022,1.249 38.91688,8.35876 53.71888,12.82576 0.621,31.554 0.94479,65.80625 -0.36621,97.23625 -1.503,36.055 -25.67167,65.22059 -52.33167,87.83059 -13.92,-9.714 -43.08154,-40.74571 -55.98354,-54.37571 l 4.47511,-4.67938 c -3.578,-5.202 -7.57987,-10.10009 -11.96487,-14.64209 -11.44,8.97 -18.31649,23.08864 -33.96249,21.74764 -0.61973,3.31104 2.18825,8.79101 4.09718,11.54891 5.87491,8.48688 12.91458,12.4361 21.50542,17.511 -0.19319,-2.52417 -1.90523,-7.55414 -2.70118,-10.16797 2.153,-6.842 5.62621,-10.0708 10.51321,-14.9778 5.947,6.59 13.65393,14.00077 20.02593,20.36377 2.24285,2.16086 5.35252,4.97325 7.41652,7.18618 7.651,8.207 20.41404,19.48696 23.75104,29.07896 -7.399,7.102 -16.62017,11.86359 -25.57917,16.83959 -7.524,-4.003 -17.59753,-9.63645 -24.31353,-15.03645 7.408,-14.669 14.43582,-18.25516 24.40582,-29.75916 v -0.001 c -2.26188,-2.21689 -4.45381,-4.50253 -6.5757,-6.8534 -9.81961,7.51791 -14.89507,16.66337 -28.88679,26.22618 -5.025,-4.274 -9.74289,-8.32808 -14.42289,-13.00608 -19.983897,-19.747 -32.431799,-45.86612 -35.187099,-73.82912 -1.2739,-12.951 -0.796439,-27.01898 -0.773439,-40.10598 l 0.06885,-59.0243 c 15.0069,-3.977 30.122021,-7.11246 45.233021,-10.66346 0.008,-4.057 0.50416,-9.43453 0.78516,-13.58953 -16.703,1.084 -42.685302,8.81223 -59.206202,13.51623 l -0.0293,60.17802 c -0.0102,26.871 -1.222475,49.22701 5.670425,75.75101 11.4392,44.017 54.292264,80.57684 93.082264,102.03584 49.466,-25.064 96.86252,-65.34957 103.61452,-123.88757 1.79,-15.522 1.20628,-31.95994 1.00928,-47.60294 -0.347,-21.935 -0.5005,-43.87181 -0.4585,-65.80881 -23.573,-8.547 -48.42914,-12.86709 -73.10614,-16.75309 z"
       transform="matrix(1.33333,0,0,1.33231,-66.6666,-263.797)"
       sodipodi:nodetypes="cccccccccccccccccccccccccccccccccccc" />
    <path
       fill="#ae1513"
       transform="matrix(1.33333,0,0,1.33231,-66.6666,-263.797)"
       d="m 105.503,421.25 c 0.88512,-0.0345 5.05,9.435 8.238,13.422 3.932,4.918 11.579,8.782 14.061,11.32 -11.673,-3.161 -19.353,-13.435 -22.299,-24.742 z"
       data-index="29"
       style="visibility:visible;opacity:1"
       id="path29"
       sodipodi:nodetypes="cccc" />
    <path
       fill="#2D2C2C"
       transform="matrix(1.33333 0 0 1.33231 -66.6666 -263.797)"
       d="M324.272 286.944L435.799 286.901L435.88 322.952L397.791 322.897L398.158 434.859L397.77 472.543L360.284 472.471L360.195 322.984L324.163 322.818L324.272 286.944Z"
       data-index="31"
       style="opacity: 1;"
       id="path31" />
    <path
       fill="#FE5500"
       transform="matrix(1.33333 0 0 1.33231 -66.6666 -263.797)"
       d="M1147.42 336.306C1152.83 335.635 1158.3 335.61 1163.71 336.23C1184.15 338.767 1197.75 350.782 1209.98 366.373C1200.83 372.667 1191.28 380.725 1182.71 387.813C1173.73 379.123 1165.26 371.941 1151.79 372.956C1144.23 373.549 1137.22 377.134 1132.32 382.914C1105.48 414.236 1147.4 465.834 1181.94 422.171C1185.89 424.928 1190.86 429.093 1194.73 432.157C1199 435.663 1204.23 439.372 1208.71 442.703C1197.54 459.766 1183.58 471.446 1162.93 474.457C1124.44 480.069 1092.05 452.793 1086.86 414.721C1084.15 396.006 1089.08 376.99 1100.55 361.952C1113.12 345.568 1127.49 338.987 1147.42 336.306Z"
       data-index="32"
       id="path32" />
    <path
       fill="#2D2C2C"
       transform="matrix(1.33333 0 0 1.33231 -66.6666 -263.797)"
       d="M575.218 336.897C600.03 335.082 612.833 343.634 629.456 360.766C620.41 367.125 611.409 373.548 602.453 380.034C596.26 372.394 584.753 362.653 574.467 372.342C572.175 374.501 574.078 379.007 576.665 380.51C588.487 386.923 600.657 389.82 612.178 397.182C636.216 412.542 634.46 457.052 608.089 469.174C600.581 472.625 595.819 473.768 587.475 475.196C561.992 476.097 545.565 467.384 535.319 443.287C544.028 437.687 552.843 431.854 561.811 426.705C568.035 436.378 576.24 443.247 588.265 440.956C597.784 438.706 597.563 425.198 589.201 421.306C567.365 411.142 539.244 407.292 539.197 376.435C539.162 353.266 553.279 340.986 575.218 336.897Z"
       data-index="33"
       style="opacity: 1;"
       id="path33" />
    <path
       fill="#2D2C2C"
       transform="matrix(1.33333 0 0 1.33231 -66.6666 -263.797)"
       d="M671.06 336.888C693.099 334.177 710.25 344.129 723.703 360.67C714.803 367.071 705.936 373.519 697.103 380.012C690.513 371.915 679.596 363.549 668.944 372.025C667.96 372.808 667.135 375.19 667.432 376.456C668.888 382.656 677.541 385.571 682.876 387.523C691.567 390.522 699.922 393.211 707.342 398.952C715.74 405.437 721.172 415.031 722.414 425.57C726.222 456.267 709.508 471.596 680.687 475.071C673.976 475.657 663.115 473.67 656.879 471.009C641.77 464.56 636.094 457.794 629.929 443.296C638.364 437.628 647.311 432.095 655.944 426.729C662.642 437.031 670.373 442.656 683.126 441.085C687.418 440.557 691.711 435.207 690.309 431.64C684.522 416.924 662.157 416.652 650.51 407.734C642.769 402.395 635.642 394.059 634.358 384.1C630.648 355.315 645.928 341.552 671.06 336.888Z"
       data-index="34"
       style="opacity: 1;"
       id="path34" />
    <path
       fill="#FE5500"
       transform="matrix(1.33333 0 0 1.33231 -66.6666 -263.797)"
       d="M1256.89 297.632C1259.35 297.21 1260.38 297.033 1262.26 298.551C1263.57 304.763 1262.78 333.251 1262.69 341.193C1270.39 340.784 1278.44 340.805 1286.17 340.713L1286.14 375.595L1262.5 375.55L1262.63 472.529L1242.61 472.51L1227.31 472.554L1227.19 375.564L1211.4 375.711C1211.37 364.246 1211.2 352.782 1210.92 341.322L1227.16 340.689L1227.32 299.942L1256.89 297.632Z"
       data-index="35"
       id="path35" />
    <path
       fill="#2D2C2C"
       transform="matrix(1.33333 0 0 1.33231 -66.6666 -263.797)"
       d="M929.545 336.249C931.451 336.104 932.399 335.826 934.053 336.736C935.935 340.981 935.029 370.224 934.971 376.815C895.448 378.554 898.862 390.571 899.053 425.359C899.118 441.105 899.291 456.85 899.572 472.593C891.92 472.644 869.088 473.244 863.082 471.816C861.732 470.594 862.149 470.483 862.022 468.185C862.6 427.434 862.938 381.174 861.732 340.713C873.443 341.388 888.047 341.005 899.816 340.946L899.722 352.651C909.498 342.628 915.69 338.794 929.545 336.249Z"
       data-index="36"
       style="opacity: 1;"
       id="path36" />
    <path
       fill="#AE1513"
       transform="matrix(1.33333 0 0 1.33231 -66.6666 -263.797)"
       d="M194.481 396.534C208.495 406.812 208.991 417.804 229.428 418.38C228.84 419.93 228.219 421.466 227.565 422.988C222.117 435.521 215.602 441.233 203.179 446.133C203.958 441.805 204.177 438.437 204.486 434.078C203.231 431.457 201.644 429.286 200.006 426.9L195.355 421.995C188.633 428.488 181.987 435.057 175.416 441.701L168.56 434.352C175.177 428.179 181.128 421.925 187.388 415.402L182.035 410.757C186.523 404.565 188.906 401.682 194.481 396.534Z"
       data-index="37"
       style="opacity: 1;"
       id="path37" />
    <path
       fill="#AE1513"
       transform="matrix(1.33333 0 0 1.33231 -66.6666 -263.797)"
       d="M230.58 418.594C232.965 429.496 217.307 443.446 207.451 446.288C207.801 445.182 216.057 440.575 218.081 438.692C224.719 432.516 227.378 426.639 230.58 418.594Z"
       data-index="38"
       id="path38" />
  </g>
</svg>
