<?xml version="1.0" encoding="UTF-8" standalone="no"?>
<svg
   width="320"
   height="433"
   viewBox="0 0 320 433"
   version="1.1"
   id="svg38"
   sodipodi:docname="LogoDEFINITIVOcropped.svg"
   inkscape:version="1.4.2 (f4327f4, 2025-05-13)"
   xmlns:inkscape="http://www.inkscape.org/namespaces/inkscape"
   xmlns:sodipodi="http://sodipodi.sourceforge.net/DTD/sodipodi-0.dtd"
   xmlns="http://www.w3.org/2000/svg"
   xmlns:svg="http://www.w3.org/2000/svg">
  <defs
     id="defs38" />
  <sodipodi:namedview
     id="namedview38"
     pagecolor="#ffffff"
     bordercolor="#000000"
     borderopacity="0.25"
     inkscape:showpageshadow="2"
     inkscape:pageopacity="0.0"
     inkscape:pagecheckerboard="0"
     inkscape:deskcolor="#d1d1d1"
     inkscape:zoom="2"
     inkscape:cx="163.25"
     inkscape:cy="216.75"
     inkscape:window-width="1920"
     inkscape:window-height="1017"
     inkscape:window-x="-8"
     inkscape:window-y="-8"
     inkscape:window-maximized="1"
     inkscape:current-layer="g38" />
  <clipPath
     id="cl_3">
    <rect
       x="4.5776367e-05"
       y="6.1035156e-05"
       width="1672.0001"
       height="433"
       id="rect1" />
  </clipPath>
  <g
     clip-path="url(#cl_3)"
     id="g38">
    <path
       fill="#FE5500"
       transform="matrix(1.33333 0 0 1.33231 -66.6666 -263.797)"
       d="M179.124 206.087C159.936 236.562 185.185 254.547 196.928 280.929C200.04 287.922 200.522 294.417 201.164 301.917C206.186 294.179 207.619 291.306 210.565 282.569C238.36 309.794 237.542 342.61 220.537 375.786C216.739 383.197 213.167 384.852 205.784 386.921C176.081 396.542 159.6 394.823 129.936 388.168C124.896 386.966 119.105 386.189 115.782 382.059C101.067 363.775 98.2283 336.515 106.63 314.867C110.885 303.905 116.134 299.37 124.159 291.739C122.155 302.665 122.203 307.286 124.545 318.131C127.895 312.679 139.923 295.763 141.121 291.142C145.94 272.541 133.485 258.458 143.652 237.782C152.318 220.161 161.111 212.874 179.124 206.087Z"
       data-index="3"
       style="opacity: 1;"
       id="path3" />
    <path
       fill="#2D2C2C"
       transform="matrix(1.33333 0 0 1.33231 -66.6666 -263.797)"
       d="M135.307 356.681C141.654 353.238 172.961 352.553 180.529 353.809C185.731 353.971 195.27 353.637 199.2 356.624C200.293 358.18 200.29 358.564 200.56 360.466L198.37 358.493C197.668 360.323 198.235 361.242 197.613 363.133C197.966 365.8 199.079 371.17 200.322 373.461C202.003 378.003 203.824 382.492 205.784 386.921C176.081 396.542 159.6 394.823 129.936 388.168C132.202 383.887 134.218 378.298 135.563 373.641C137.107 369.718 138.503 363.045 138.221 358.799C137.48 358.413 136.045 357.246 135.307 356.681Z"
       data-index="4"
       style="opacity: 1;"
       id="path4" />
    <path
       fill="#DA6013"
       transform="matrix(1.33333 0 0 1.33231 -66.6666 -263.797)"
       d="M135.307 356.681C141.654 353.238 172.961 352.553 180.529 353.809C177.543 354.544 175.407 354.658 172.338 354.906L175.854 355.191C172.323 355.38 163.17 355.544 160.399 356.397C155.734 356.638 141.69 356.983 138.221 358.799C137.48 358.413 136.045 357.246 135.307 356.681Z"
       data-index="5"
       style="opacity: 1;"
       id="path5" />
    <path
       fill="#C35B16"
       transform="matrix(1.33333 0 0 1.33231 -66.6666 -263.797)"
       d="M180.529 353.809C185.731 353.971 195.27 353.637 199.2 356.624C200.293 358.18 200.29 358.564 200.56 360.466L198.37 358.493C197.668 360.323 198.235 361.242 197.613 363.133C197.152 361.213 196.96 360.498 196.169 358.696C192.775 356.147 166.093 356.45 160.399 356.397C163.17 355.544 172.323 355.38 175.854 355.191L172.338 354.906C175.407 354.658 177.543 354.544 180.529 353.809Z"
       data-index="6"
       id="path6" />
    <path
       fill="#2D2C2C"
       transform="matrix(1.33333 0 0 1.33231 -66.6666 -263.797)"
       d="M157.12 341.839C163.334 341.832 171.503 341.572 177.555 341.866C179.372 342.521 180.505 343.184 182.324 342.725C188.663 342.401 195.219 343.438 201.473 344.491L203.452 347.491C209.077 348.475 220.106 349.82 218.302 358.459C217.189 363.785 211.195 368.238 206.744 370.839C205.643 371.493 204.519 372.108 203.374 372.682C202.102 372.76 201.246 372.637 200.322 373.461C199.079 371.17 197.966 365.8 197.613 363.133C198.235 361.242 197.668 360.323 198.37 358.493L200.56 360.466C200.29 358.564 200.293 358.18 199.2 356.624C195.27 353.637 185.731 353.971 180.529 353.809C172.961 352.553 141.654 353.238 135.307 356.681C136.045 357.246 137.48 358.413 138.221 358.799C138.503 363.045 137.107 369.718 135.563 373.641L132.544 372.643C127.409 369.531 118.806 364.517 117.449 358.073C115.591 349.25 127.927 348.21 133.821 347.217C133.732 345.428 133.625 345.109 134.176 343.451L135.196 344.262L153.913 341.836L157.12 341.839Z"
       data-index="7"
       style="opacity: 1;"
       id="path7" />
    <path
       fill="#DA6013"
       transform="matrix(1.33333 0 0 1.33231 -66.6666 -263.797)"
       d="M157.12 341.839C163.334 341.832 171.503 341.572 177.555 341.866C179.372 342.521 180.505 343.184 182.324 342.725C188.663 342.401 195.219 343.438 201.473 344.491L203.452 347.491C176.816 343.619 160.29 344.159 133.821 347.217C133.732 345.428 133.625 345.109 134.176 343.451L135.196 344.262L153.913 341.836L157.12 341.839Z"
       data-index="8"
       id="path8" />
    <path
       fill="#DA6013"
       transform="matrix(1.33333 0 0 1.33231 -66.6666 -263.797)"
       d="M135.307 356.681C136.045 357.246 137.48 358.413 138.221 358.799C138.503 363.045 137.107 369.718 135.563 373.641L132.544 372.643C133.814 369.666 134.955 360.226 135.307 356.681Z"
       data-index="9"
       style="opacity: 1;"
       id="path9" />
    <path
       fill="#DA6013"
       transform="matrix(1.33333 0 0 1.33231 -66.6666 -263.797)"
       d="M197.613 363.133C198.235 361.242 197.668 360.323 198.37 358.493L200.56 360.466C200.886 363.387 201.969 370.116 203.374 372.682C202.102 372.76 201.246 372.637 200.322 373.461C199.079 371.17 197.966 365.8 197.613 363.133Z"
       data-index="10"
       id="path10" />
    <path
       fill="#2D2C2C"
       transform="matrix(1.33333 0 0 1.33231 -66.6666 -263.797)"
       d="M167.005 303.917C170.764 305.711 173.992 307.523 177.608 309.557C178.411 310.071 179.749 311.014 180.575 311.286C181.473 312.288 184.291 315.663 185.268 316.026C185.289 320.786 184.232 325.15 183.304 329.812C182.324 334.026 181.53 336.978 181.288 341.329C181.515 341.651 182.077 342.505 182.324 342.725C180.505 343.184 179.372 342.521 177.555 341.866C171.503 341.572 163.334 341.832 157.12 341.839L153.913 341.836C151.03 321.207 142.741 319.186 162.861 306.437L167.005 303.917Z"
       data-index="11"
       id="path11" />
    <path
       fill="#C35B16"
       transform="matrix(1.33333 0 0 1.33231 -66.6666 -263.797)"
       d="M167.005 303.917C170.764 305.711 173.992 307.523 177.608 309.557C178.411 310.071 179.749 311.014 180.575 311.286C181.473 312.288 184.291 315.663 185.268 316.026C185.289 320.786 184.232 325.15 183.304 329.812C182.789 326.774 183.291 325.987 181.398 324.278C181.892 321.914 182.202 319.106 182.528 316.679C172.985 316.534 169.136 309.415 162.469 310.108C159.67 312.164 154.768 315.547 152.442 317.866C153.394 325.977 155.175 333.91 157.12 341.839L153.913 341.836C151.03 321.207 142.741 319.186 162.861 306.437L167.005 303.917Z"
       data-index="12"
       id="path12" />
    <path
       fill="#413631"
       transform="matrix(1.33333 0 0 1.33231 -66.6666 -263.797)"
       d="M162.469 310.108L167.645 306.97C172.272 309.593 178.743 313.051 182.528 316.679C172.985 316.534 169.136 309.415 162.469 310.108Z"
       data-index="13"
       id="path13" />
    <path
       fill="#DA6013"
       transform="matrix(1.33333 0 0 1.33231 -66.6666 -263.797)"
       d="M181.398 324.278C183.291 325.987 182.789 326.774 183.304 329.812C182.324 334.026 181.53 336.978 181.288 341.329C181.515 341.651 182.077 342.505 182.324 342.725C180.505 343.184 179.372 342.521 177.555 341.866C178.369 339.801 180.536 327.888 181.398 324.278Z"
       data-index="14"
       id="path14" />
    <path
       fill="#413631"
       transform="matrix(1.33333 0 0 1.33231 -66.6666 -263.797)"
       d="M134.176 343.451C135.315 329.155 138.661 313.655 152.742 306.449C154.786 305.404 155.953 304.367 158.335 303.923L158.77 304.981C160.13 305.476 161.494 305.962 162.861 306.437C142.741 319.186 151.03 321.207 153.913 341.836L135.196 344.262L134.176 343.451Z"
       data-index="15"
       id="path15" />
    <path
       fill="#C35B16"
       transform="matrix(1.33333 0 0 1.33231 -66.6666 -263.797)"
       d="M147.379 316.318L147.863 316.945C146.57 321.616 143.092 329.875 141.308 335.574C141.074 335.348 140.577 334.399 140.427 334.135C140.355 328.902 144.132 320.479 147.379 316.318Z"
       data-index="16"
       id="path16" />
    <defs
       id="defs17">
      <linearGradient
         id="gradient_0"
         gradientUnits="userSpaceOnUse"
         x1="197.67831"
         y1="317.58356"
         x2="182.8204"
         y2="340.4996">
        <stop
           offset="0"
           stop-color="#443129"
           id="stop16" />
        <stop
           offset="1"
           stop-color="#3B3D3D"
           id="stop17" />
      </linearGradient>
    </defs>
    <path
       fill="url(#gradient_0)"
       transform="matrix(1.33333 0 0 1.33231 -66.6666 -263.797)"
       d="M185.127 307.99C198.944 315.757 199.979 330.408 201.473 344.491C195.219 343.438 188.663 342.401 182.324 342.725C182.077 342.505 181.515 341.651 181.288 341.329C181.53 336.978 182.324 334.026 183.304 329.812C184.232 325.15 185.289 320.786 185.268 316.026C184.291 315.663 181.473 312.288 180.575 311.286C179.749 311.014 178.411 310.071 177.608 309.557C179.646 307.988 182.406 308.189 185.127 307.99Z"
       data-index="17"
       style="opacity: 1;"
       id="path17" />
    <path
       fill="#C35B16"
       transform="matrix(1.33333 0 0 1.33231 -66.6666 -263.797)"
       d="M186.481 316.09C187.806 316.289 188.122 316.278 189.358 316.906C193.635 326.098 194.354 327.189 195.485 337.038C192.015 330.127 190.374 323.098 186.481 316.09Z"
       data-index="18"
       id="path18" />
    <path
       fill="#2D2C2C"
       transform="matrix(1.33333 0 0 1.33231 -66.6666 -263.797)"
       d="M180.575 311.286C180.637 310.01 180.857 310.476 180.31 309.607C181.728 309.201 184.04 309.98 185.59 310.353C188.11 312.743 189.65 313.36 189.358 316.906C188.122 316.278 187.806 316.289 186.481 316.09L185.268 316.026C184.291 315.663 181.473 312.288 180.575 311.286Z"
       data-index="19"
       id="path19" />
    <path
       fill="#2D2C2C"
       transform="matrix(1.33333 0 0 1.33231 -66.6666 -263.797)"
       d="M158.335 303.923C163.442 299.815 163.565 292.432 173.18 299.748C172.079 301.601 168.862 303.316 167.005 303.917L162.861 306.437C161.494 305.962 160.13 305.476 158.77 304.981L158.335 303.923Z"
       data-index="20"
       id="path20" />
    <path
       fill="#413631"
       transform="matrix(1.33333 0 0 1.33231 -66.6666 -263.797)"
       d="M173.18 299.748C176.626 304.447 180.382 304.901 185.127 307.99C182.406 308.189 179.646 307.988 177.608 309.557C173.992 307.523 170.764 305.711 167.005 303.917C168.862 303.316 172.079 301.601 173.18 299.748Z"
       data-index="21"
       id="path21" />
    <path
       id="path26"
       style="opacity:1;fill:#ae1513;fill-opacity:1"
       d="m 197.31978,257.11198 c 2.257,4.92 4.41609,9.88338 6.47609,14.88838 15.022,1.249 38.91688,8.35876 53.71888,12.82576 0.621,31.554 0.94479,65.80625 -0.36621,97.23625 -1.503,36.055 -25.67167,65.22059 -52.33167,87.83059 -13.92,-9.714 -43.08154,-40.74571 -55.98354,-54.37571 l 4.47511,-4.67938 c -3.578,-5.202 -7.57987,-10.10009 -11.96487,-14.64209 -11.44,8.97 -18.31649,23.08864 -33.96249,21.74764 -0.61973,3.31104 2.18825,8.79101 4.09718,11.54891 5.87491,8.48688 12.91458,12.4361 21.50542,17.511 -0.19319,-2.52417 -1.90523,-7.55414 -2.70118,-10.16797 2.153,-6.842 5.62621,-10.0708 10.51321,-14.9778 5.947,6.59 13.65393,14.00077 20.02593,20.36377 2.24285,2.16086 5.35252,4.97325 7.41652,7.18618 7.651,8.207 20.41404,19.48696 23.75104,29.07896 -7.399,7.102 -16.62017,11.86359 -25.57917,16.83959 -7.524,-4.003 -17.59753,-9.63645 -24.31353,-15.03645 7.408,-14.669 14.43582,-18.25516 24.40582,-29.75916 v -0.001 c -2.26188,-2.21689 -4.45381,-4.50253 -6.5757,-6.8534 -9.81961,7.51791 -14.89507,16.66337 -28.88679,26.22618 -5.025,-4.274 -9.74289,-8.32808 -14.42289,-13.00608 -19.983897,-19.747 -32.431799,-45.86612 -35.187099,-73.82912 -1.2739,-12.951 -0.796439,-27.01898 -0.773439,-40.10598 l 0.06885,-59.0243 c 15.0069,-3.977 30.122021,-7.11246 45.233021,-10.66346 0.008,-4.057 0.50416,-9.43453 0.78516,-13.58953 -16.703,1.084 -42.685302,8.81223 -59.206202,13.51623 l -0.0293,60.17802 c -0.0102,26.871 -1.222475,49.22701 5.670425,75.75101 11.4392,44.017 54.292264,80.57684 93.082264,102.03584 49.466,-25.064 96.86252,-65.34957 103.61452,-123.88757 1.79,-15.522 1.20628,-31.95994 1.00928,-47.60294 -0.347,-21.935 -0.5005,-43.87181 -0.4585,-65.80881 -23.573,-8.547 -48.42914,-12.86709 -73.10614,-16.75309 z"
       transform="matrix(1.33333,0,0,1.33231,-66.6666,-263.797)"
       sodipodi:nodetypes="cccccccccccccccccccccccccccccccccccc" />
    <path
       fill="#ae1513"
       transform="matrix(1.33333,0,0,1.33231,-66.6666,-263.797)"
       d="m 105.503,421.25 c 0.88512,-0.0345 5.05,9.435 8.238,13.422 3.932,4.918 11.579,8.782 14.061,11.32 -11.673,-3.161 -19.353,-13.435 -22.299,-24.742 z"
       data-index="29"
       style="visibility:visible;opacity:1"
       id="path29"
       sodipodi:nodetypes="cccc" />
    <path
       fill="#AE1513"
       transform="matrix(1.33333 0 0 1.33231 -66.6666 -263.797)"
       d="M194.481 396.534C208.495 406.812 208.991 417.804 229.428 418.38C228.84 419.93 228.219 421.466 227.565 422.988C222.117 435.521 215.602 441.233 203.179 446.133C203.958 441.805 204.177 438.437 204.486 434.078C203.231 431.457 201.644 429.286 200.006 426.9L195.355 421.995C188.633 428.488 181.987 435.057 175.416 441.701L168.56 434.352C175.177 428.179 181.128 421.925 187.388 415.402L182.035 410.757C186.523 404.565 188.906 401.682 194.481 396.534Z"
       data-index="37"
       style="opacity: 1;"
       id="path37" />
    <path
       fill="#AE1513"
       transform="matrix(1.33333 0 0 1.33231 -66.6666 -263.797)"
       d="M230.58 418.594C232.965 429.496 217.307 443.446 207.451 446.288C207.801 445.182 216.057 440.575 218.081 438.692C224.719 432.516 227.378 426.639 230.58 418.594Z"
       data-index="38"
       id="path38" />
  </g>
</svg>
