<?xml version="1.0" encoding="UTF-8" standalone="no"?>
<!-- Uploaded to: SVG Repo, www.svgrepo.com, Generator: SVG Repo Mixer Tools -->

<svg
   width="800px"
   height="800px"
   viewBox="0 0 128 128"
   aria-hidden="true"
   role="img"
   class="iconify iconify--noto"
   preserveAspectRatio="xMidYMid meet"
   version="1.1"
   id="svg49"
   sodipodi:docname="placeholder_icon_user.svg"
   inkscape:version="1.4.2 (f4327f4, 2025-05-13)"
   xmlns:inkscape="http://www.inkscape.org/namespaces/inkscape"
   xmlns:sodipodi="http://sodipodi.sourceforge.net/DTD/sodipodi-0.dtd"
   xmlns:xlink="http://www.w3.org/1999/xlink"
   xmlns="http://www.w3.org/2000/svg"
   xmlns:svg="http://www.w3.org/2000/svg">
  <defs
     id="defs49" />
  <sodipodi:namedview
     id="namedview49"
     pagecolor="#ffffff"
     bordercolor="#000000"
     borderopacity="0.25"
     inkscape:showpageshadow="2"
     inkscape:pageopacity="0.0"
     inkscape:pagecheckerboard="0"
     inkscape:deskcolor="#d1d1d1"
     inkscape:zoom="0.509375"
     inkscape:cx="320.98159"
     inkscape:cy="505.52147"
     inkscape:window-width="1920"
     inkscape:window-height="1017"
     inkscape:window-x="-8"
     inkscape:window-y="-8"
     inkscape:window-maximized="1"
     inkscape:current-layer="g46" />
  <g
     fill="#ef5350"
     id="g2"
     style="stroke:#000000;stroke-opacity:1;fill:#ffffff;fill-opacity:1;stroke-width:1.6;stroke-dasharray:none;stroke-linejoin:bevel;paint-order:normal">
    <path
       d="M110.97 59.11v-.04c.01.02.04.06.04.06s2.39 14.4 2.39 17.32c0 17.6-23.26 24.66-48.67 24.67V45.78c19.26.12 30.09 4.58 37.26 8.29c3.36 1.74 8.98 5.04 8.98 5.04z"
       id="path1"
       style="stroke:#000000;stroke-opacity:1;fill:#ffffff;fill-opacity:1;stroke-width:1.6;stroke-dasharray:none;stroke-linejoin:bevel;paint-order:normal" />
    <path
       d="M17.03 59.11v-.04c-.01.02-.04.06-.04.06s-2.39 14.4-2.39 17.32c0 17.6 23.26 24.66 48.67 24.67V45.78c-19.26.12-30.09 4.58-37.26 8.29c-3.36 1.74-8.98 5.04-8.98 5.04z"
       id="path2"
       style="stroke:#000000;stroke-opacity:1;fill:#ffffff;fill-opacity:1;stroke-width:1.6;stroke-dasharray:none;stroke-linejoin:bevel;paint-order:normal" />
  </g>
  <linearGradient
     id="IconifyId17ecdb2904d178eab8693"
     gradientUnits="userSpaceOnUse"
     x1="85.689"
     y1="83.438"
     x2="85.689"
     y2="30.707"
     gradientTransform="matrix(1 0 0 -1 0 128)">
    <stop
       offset=".255"
       stop-color="#b71c1c"
       id="stop2" />
    <stop
       offset="1"
       stop-color="#d32f2f"
       id="stop3" />
  </linearGradient>
  <path
     d="M100.29 48.3c2.62 2.85 7.14 6.77 7.85 10.51c1.13 5.96 1.15 15.17 1.15 16.98c0 8.92-7.34 14.68-16.83 18.72c-14.29 6.08-30.37-4.13-30.37-19.12V61.88c0-19.12 24.66-28.2 37.9-13.91l.3.33z"
     fill="url(#IconifyId17ecdb2904d178eab8693)"
     id="path3"
     style="stroke:#000000;stroke-opacity:1;fill:#ffffff;fill-opacity:1;stroke-width:1.6;stroke-dasharray:none;stroke-linejoin:bevel;paint-order:normal" />
  <linearGradient
     id="IconifyId17ecdb2904d178eab8694"
     gradientUnits="userSpaceOnUse"
     x1="42.851"
     y1="83.438"
     x2="42.851"
     y2="30.707"
     gradientTransform="matrix(1 0 0 -1 0 128)">
    <stop
       offset=".255"
       stop-color="#b71c1c"
       id="stop4" />
    <stop
       offset="1"
       stop-color="#d32f2f"
       id="stop5" />
  </linearGradient>
  <path
     d="M28.02 48.3c-2.62 2.85-6.52 6.77-7.23 10.51c-1.13 5.96-1.31 14.71-1.31 16.52c0 8.92 6.88 15.14 16.38 19.18c14.29 6.08 30.37-4.13 30.37-19.12V61.88c0-19.12-24.66-28.2-37.9-13.91c-.11.11-.21.22-.31.33z"
     fill="url(#IconifyId17ecdb2904d178eab8694)"
     id="path5"
     style="stroke:#000000;stroke-opacity:1;fill:#ffffff;fill-opacity:1;stroke-width:1.6;stroke-dasharray:none;stroke-linejoin:bevel;paint-order:normal" />
  <linearGradient
     id="IconifyId17ecdb2904d178eab8695"
     gradientUnits="userSpaceOnUse"
     x1="12"
     y1="18.009"
     x2="116"
     y2="18.009"
     gradientTransform="matrix(1 0 0 -1 0 128)">
    <stop
       offset="0"
       stop-color="#f44336"
       id="stop6" />
    <stop
       offset=".359"
       stop-color="#e73b32"
       id="stop7" />
    <stop
       offset="1"
       stop-color="#c62828"
       id="stop8" />
  </linearGradient>
  <path
     d="M64.14 96H64c-25.65.03-52 7.1-52 24.99v3h104v-3C116 104.12 89.9 96 64.14 96z"
     fill="url(#IconifyId17ecdb2904d178eab8695)"
     id="path8"
     style="stroke:#000000;stroke-opacity:1;fill:#ffffff;fill-opacity:1;stroke-width:1.6;stroke-dasharray:none;stroke-linejoin:bevel;paint-order:normal" />
  <radialGradient
     id="IconifyId17ecdb2904d178eab8696"
     cx="99.638"
     cy="45.85"
     r="23.419"
     gradientTransform="matrix(1 0 0 .4912 -21.055 59.629)"
     gradientUnits="userSpaceOnUse">
    <stop
       offset=".728"
       stop-color="#bfa055"
       stop-opacity="0"
       id="stop9" />
    <stop
       offset="1"
       stop-color="#bfa055"
       id="stop10" />
  </radialGradient>
  <radialGradient
     id="IconifyId17ecdb2904d178eab8697"
     cx="76.573"
     cy="49.332"
     r="6.921"
     gradientTransform="matrix(-.9057 .4238 -.3144 -.6719 186.513 79.36)"
     gradientUnits="userSpaceOnUse">
    <stop
       offset=".663"
       stop-color="#bfa055"
       id="stop11" />
    <stop
       offset="1"
       stop-color="#bfa055"
       stop-opacity="0"
       id="stop12" />
  </radialGradient>
  <radialGradient
     id="IconifyId17ecdb2904d178eab8698"
     cx="94.421"
     cy="68.91"
     r="30.388"
     gradientTransform="matrix(-.0746 -.9972 .8311 -.0622 33.575 157.534)"
     gradientUnits="userSpaceOnUse">
    <stop
       offset=".725"
       stop-color="#bfa055"
       stop-opacity="0"
       id="stop13" />
    <stop
       offset="1"
       stop-color="#bfa055"
       id="stop14" />
  </radialGradient>
  <radialGradient
     id="IconifyId17ecdb2904d178eab8699"
     cx="44.222"
     cy="68.91"
     r="30.388"
     gradientTransform="matrix(.0746 -.9972 -.8311 -.0622 98.192 107.475)"
     gradientUnits="userSpaceOnUse">
    <stop
       offset=".725"
       stop-color="#bfa055"
       stop-opacity="0"
       id="stop15" />
    <stop
       offset="1"
       stop-color="#bfa055"
       id="stop16" />
  </radialGradient>
  <radialGradient
     id="IconifyId17ecdb2904d178eab8700"
     cx="49.439"
     cy="45.85"
     r="23.419"
     gradientTransform="matrix(-1 0 0 .4912 98.878 59.629)"
     gradientUnits="userSpaceOnUse">
    <stop
       offset=".728"
       stop-color="#bfa055"
       stop-opacity="0"
       id="stop17" />
    <stop
       offset="1"
       stop-color="#bfa055"
       id="stop18" />
  </radialGradient>
  <radialGradient
     id="IconifyId17ecdb2904d178eab8701"
     cx="26.374"
     cy="49.332"
     r="6.921"
     gradientTransform="matrix(.9057 .4238 .3144 -.6719 -13.024 100.635)"
     gradientUnits="userSpaceOnUse">
    <stop
       offset=".663"
       stop-color="#bfa055"
       id="stop19" />
    <stop
       offset="1"
       stop-color="#bfa055"
       stop-opacity="0"
       id="stop20" />
  </radialGradient>
  <g
     id="g21"
     style="stroke:#000000;stroke-opacity:1;fill:#ffffff;fill-opacity:1;stroke-width:1.6;stroke-dasharray:none;stroke-linejoin:bevel;paint-order:normal">
    <path
       d="M64 90.08h-9.08v9.98c0 4.51 3.7 8.17 8.26 8.17h1.65c4.56 0 8.26-3.66 8.26-8.17v-9.98H64z"
       fill="#c48e6a"
       id="path21"
       style="stroke:#000000;stroke-opacity:1;fill:#ffffff;fill-opacity:1;stroke-width:1.6;stroke-dasharray:none;stroke-linejoin:bevel;paint-order:normal" />
  </g>
  <linearGradient
     id="IconifyId17ecdb2904d178eab8702"
     gradientUnits="userSpaceOnUse"
     x1="64"
     y1="44"
     x2="64"
     y2=".165"
     gradientTransform="matrix(1 0 0 -1 0 128)">
    <stop
       offset="0"
       stop-color="#ffeb3b"
       id="stop21" />
    <stop
       offset=".635"
       stop-color="#ffdd12"
       id="stop22" />
    <stop
       offset="1"
       stop-color="#ffd600"
       id="stop23" />
  </linearGradient>
  <path
     d="M94 123.98v-6.1a2.48 2.48 0 0 0-2.48-2.48H66v-5.06l13.36-6.18c2.95-1.36 5.03-4.24 5.51-7.6l1.69-12.03l-15.62 8.87c-4.05 2.42-6.71 6.69-7.22 11.46h-.17c-.51-4.77-3.17-9.05-7.22-11.46l-14.9-9.46l1.18 12.29c.34 3.54 2.47 6.62 5.56 8.05l13.27 6.13v4.98H36.48a2.48 2.48 0 0 0-2.48 2.48v6.1h60z"
     fill="url(#IconifyId17ecdb2904d178eab8702)"
     id="path23"
     style="stroke:#000000;stroke-opacity:1;fill:#ffffff;fill-opacity:1;stroke-width:1.6;stroke-dasharray:none;stroke-linejoin:bevel;paint-order:normal" />
  <g
     id="g29"
     style="stroke:#000000;stroke-opacity:1;fill:#ffffff;fill-opacity:1">
    <path
       d="M64.22 11.07c-17.4 0-33.52 18.61-33.52 45.4c0 26.64 16.61 39.81 33.52 39.81S97.74 83.1 97.74 56.46c0-26.78-16.11-45.39-33.52-45.39z"
       fill="#e0bb95"
       id="path25"
       style="stroke:#000000;stroke-opacity:1;fill:#ffffff;fill-opacity:1;stroke-width:1.6;stroke-dasharray:none;stroke-linejoin:bevel;paint-order:normal" />
  </g>
  <g
     id="g49"
     style="stroke:#000000;stroke-opacity:1;fill:#ffffff;fill-opacity:1;stroke-width:1.6;stroke-dasharray:none;stroke-linejoin:bevel;paint-order:normal">
    <radialGradient
       id="IconifyId17ecdb2904d178eab8703"
       cx="64"
       cy="96.325"
       r="34.638"
       gradientTransform="matrix(1 0 0 -1 0 128)"
       gradientUnits="userSpaceOnUse">
      <stop
         offset="0"
         stop-color="#f44336"
         id="stop30" />
      <stop
         offset=".299"
         stop-color="#eb3e33"
         id="stop31" />
      <stop
         offset=".784"
         stop-color="#d3302c"
         id="stop32" />
      <stop
         offset=".998"
         stop-color="#c62828"
         id="stop33" />
    </radialGradient>
    <path
       d="M64.41 8C17.66 8 21.18 55.35 21.18 55.35s12.21-11.01 43.5-11.01s42.1 9.99 42.1 9.99S111.17 8 64.41 8z"
       fill="url(#IconifyId17ecdb2904d178eab8703)"
       id="path33"
       style="stroke:#000000;stroke-opacity:1;fill:#ffffff;fill-opacity:1;stroke-width:1.6;stroke-dasharray:none;stroke-linejoin:bevel;paint-order:normal" />
    <defs
       id="defs33">
      <path
         id="IconifyId17ecdb2904d178eab8704"
         d="M64.41 8C17.66 8 21.18 55.35 21.18 55.35s12.21-11.01 43.5-11.01s42.1 9.99 42.1 9.99S111.17 8 64.41 8z" />
    </defs>
    <clipPath
       id="IconifyId17ecdb2904d178eab8705">
      <use
         xlink:href="#IconifyId17ecdb2904d178eab8704"
         overflow="visible"
         id="use33" />
    </clipPath>
    <path
       d="M47.12 10.35L54.07 8v23.75c-1.41-10.26-3.43-17.69-6.95-21.4z"
       clip-path="url(#IconifyId17ecdb2904d178eab8705)"
       fill="#c62828"
       id="path34"
       style="stroke:#000000;stroke-opacity:1;fill:#ffffff;fill-opacity:1;stroke-width:1.6;stroke-dasharray:none;stroke-linejoin:bevel;paint-order:normal" />
    <g
       id="g35"
       style="stroke:#000000;stroke-opacity:1;fill:#ffffff;fill-opacity:1;stroke-width:1.6;stroke-dasharray:none;stroke-linejoin:bevel;paint-order:normal">
      <defs
         id="defs34">
        <path
           id="IconifyId17ecdb2904d178eab8706"
           d="M64.41 8C17.66 8 21.18 55.35 21.18 55.35s12.21-11.01 43.5-11.01s42.1 9.99 42.1 9.99S111.17 8 64.41 8z" />
      </defs>
      <clipPath
         id="IconifyId17ecdb2904d178eab8707">
        <use
           xlink:href="#IconifyId17ecdb2904d178eab8706"
           overflow="visible"
           id="use34" />
      </clipPath>
      <path
         d="M81.71 10.35L74.76 8v23.75c1.41-10.26 3.43-17.69 6.95-21.4z"
         clip-path="url(#IconifyId17ecdb2904d178eab8707)"
         fill="#c62828"
         id="path35"
         style="stroke:#000000;stroke-opacity:1;fill:#ffffff;fill-opacity:1;stroke-width:1.6;stroke-dasharray:none;stroke-linejoin:bevel;paint-order:normal" />
    </g>
    <path
       d="M69.62 42.91h-10.6c-2.82 0-5.1-2.28-5.1-5.1V9.1c0-2.82 2.28-5.1 5.1-5.1h10.6c2.82 0 5.1 2.28 5.1 5.1v28.7c0 2.82-2.28 5.11-5.1 5.11z"
       fill="#e53935"
       id="path36"
       style="stroke:#000000;stroke-opacity:1;fill:#ffffff;fill-opacity:1;stroke-width:1.6;stroke-dasharray:none;stroke-linejoin:bevel;paint-order:normal" />
    <g
       id="g46"
       style="display:inline;stroke:#000000;stroke-opacity:1;fill:#ffffff;fill-opacity:1;stroke-width:1.6;stroke-dasharray:none;stroke-linejoin:bevel;paint-order:normal"
       inkscape:label="StemmaVVF">
      <linearGradient
         id="IconifyId17ecdb2904d178eab8708"
         gradientUnits="userSpaceOnUse"
         x1="46.507"
         y1="102.92"
         x2="81.494003"
         y2="102.92"
         gradientTransform="matrix(1,0,0,-1,0,128)">
        <stop
           offset="0"
           stop-color="#ffee58"
           id="stop36" />
        <stop
           offset=".366"
           stop-color="#fee84f"
           id="stop37" />
        <stop
           offset=".961"
           stop-color="#fdd937"
           id="stop38" />
        <stop
           offset="1"
           stop-color="#fdd835"
           id="stop39" />
      </linearGradient>
      <path
         d="m 79.76,25.5 c -3.86,-6.68 1.03,-9.56 1.03,-9.56 l -4.11,-5.25 c 0,0 -3.26,1.02 -6.69,0.51 C 66.68,10.71 64.18,7.94 64.01,7.75 V 7.74 L 64,7.75 63.99,7.74 v 0.02 c -0.17,0.19 -2.67,2.96 -5.98,3.45 -3.43,0.51 -6.69,-0.51 -6.69,-0.51 l -4.11,5.25 c 0,0 4.89,2.88 1.03,9.56 -3.86,6.68 -1.49,13.78 9.34,15.06 2.87,0.34 5.74,1.52 5.74,1.52 l 0.16,0.04 v 0.29 l 0.52,-0.14 0.52,0.15 v -0.29 l 0.16,-0.04 c 0,0 2.88,-1.19 5.74,-1.52 10.83,-1.29 13.2,-8.39 9.34,-15.08 z"
         fill="url(#IconifyId17ecdb2904d178eab8708)"
         id="path39"
         style="stroke:#000000;stroke-opacity:1;fill:#ffffff;fill-opacity:1;stroke-width:1.6;stroke-dasharray:none;stroke-linejoin:bevel;paint-order:normal" />
      <ellipse
         cx="64"
         cy="25.58"
         rx="12.51"
         ry="11.84"
         fill="#6d4c41"
         id="ellipse39"
         style="stroke:#000000;stroke-opacity:1;fill:#ffffff;fill-opacity:1;stroke-width:1.6;stroke-dasharray:none;stroke-linejoin:bevel;paint-order:normal" />
      <g
         id="g45"
         style="stroke:#000000;stroke-opacity:1;fill:#ffffff;fill-opacity:1;stroke-width:1.6;stroke-dasharray:none;stroke-linejoin:bevel;paint-order:normal">
        <path
           d="m 61.137573,28.594193 c -1.497408,-1.36371 -2.27285,-3.395905 -2.005456,-5.347881 -0.989358,1.149795 -1.443928,2.700681 -1.577624,3.823735 -0.561528,5.160705 5.428097,6.791807 5.535056,6.68485 0.187175,-0.240655 0.561527,-0.882401 0.10696,-2.139152 -0.695225,-1.871759 1.123055,-2.914595 1.123055,-2.914595 0,0 -0.695225,1.497406 -0.187176,2.139152 0.802181,1.016097 1.524145,0.962619 1.871758,1.470667 0.374351,0.534788 -0.05347,1.36371 -0.427831,1.550885 2.700679,-0.213914 4.839832,-2.540242 5.401358,-5.027006 0.561529,-2.486765 -0.160435,-5.080487 -1.230012,-7.433553 -0.160435,1.898497 -2.112411,3.476121 -4.144606,3.395903 0.588267,-0.721964 1.524145,-2.72742 0.935879,-4.92005 -0.588267,-2.192631 -4.03765,-3.369165 -4.03765,-3.369165 0,0 0.962618,0.989359 1.016097,2.994814 0,2.058933 -4.706134,4.385261 -2.379806,9.091396 z"
           fill="#ffeb3b"
           id="path40"
           style="fill:#ffffff;fill-opacity:1;stroke:#000000;stroke-width:1.6;stroke-linejoin:bevel;stroke-dasharray:none;stroke-opacity:1;paint-order:normal" />
        <g
           fill="#ffeb3b"
           id="g42"
           style="display:none;fill:#ffffff;fill-opacity:1;stroke:#000000;stroke-width:1.6;stroke-linejoin:bevel;stroke-dasharray:none;stroke-opacity:1;paint-order:normal">
          <path
             d="M 69.3,32.68 59.37,23 l -1.79,1.27 9.96,9.66 c 0.14,0.14 0.38,0.22 0.63,0.22 0.26,0 0.53,-0.07 0.74,-0.22 0.29,-0.2 0.5,-0.54 0.53,-0.83 A 0.496,0.496 0 0 0 69.3,32.68 Z"
             id="path41"
             style="fill:#ffffff;fill-opacity:1;stroke:#000000;stroke-width:1.6;stroke-linejoin:bevel;stroke-dasharray:none;stroke-opacity:1;paint-order:normal" />
          <path
             d="m 60.21,21.94 c -0.14,-0.1 -0.42,-0.12 -0.58,-0.14 0.03,-0.06 0.33,-0.69 0.75,-0.81 0.35,-0.1 0.26,-0.54 -0.06,-0.65 -0.7,-0.23 -2.15,-0.2 -3.37,0.88 -0.14,0.12 -1.97,1.79 -2.88,2.65 -0.06,0.05 -0.13,0.09 -0.23,0.11 -0.54,0.14 -0.88,0.64 -0.74,1.13 0.13,0.47 0.44,1.2 1.16,1.68 0.68,0.46 1.91,0.76 1.94,0.76 0.51,0 0.95,-0.22 1.1,-0.67 0.09,-0.27 -0.12,-0.43 0.17,-0.78 0,0 2.92,-2.6 3.21,-3 0.29,-0.4 0.05,-0.77 -0.47,-1.16 z"
             id="path42"
             style="fill:#ffffff;fill-opacity:1;stroke:#000000;stroke-width:1.6;stroke-linejoin:bevel;stroke-dasharray:none;stroke-opacity:1;paint-order:normal" />
        </g>
        <g
           fill="#ffeb3b"
           id="g44"
           style="display:none;fill:#ffffff;fill-opacity:1;stroke:#000000;stroke-width:1.6;stroke-linejoin:bevel;stroke-dasharray:none;stroke-opacity:1;paint-order:normal">
          <path
             d="m 58.7,32.68 9.93,-9.68 1.79,1.27 -9.96,9.66 c -0.14,0.14 -0.38,0.22 -0.63,0.22 -0.26,0 -0.53,-0.07 -0.74,-0.22 -0.29,-0.2 -0.51,-0.54 -0.53,-0.83 -0.02,-0.21 0.06,-0.34 0.14,-0.42 z"
             id="path43"
             style="fill:#ffffff;fill-opacity:1;stroke:#000000;stroke-width:1.6;stroke-linejoin:bevel;stroke-dasharray:none;stroke-opacity:1;paint-order:normal" />
          <path
             d="m 67.79,21.94 c 0.14,-0.1 0.42,-0.12 0.58,-0.14 -0.03,-0.06 -0.33,-0.69 -0.75,-0.81 -0.35,-0.1 -0.26,-0.54 0.06,-0.65 0.7,-0.23 2.15,-0.2 3.37,0.88 0.14,0.12 1.97,1.79 2.88,2.65 0.06,0.05 0.13,0.09 0.23,0.11 0.54,0.14 0.88,0.64 0.74,1.13 -0.13,0.47 -0.44,1.2 -1.16,1.68 -0.68,0.46 -1.91,0.76 -1.94,0.76 -0.5,0 -0.95,-0.22 -1.1,-0.67 -0.09,-0.27 0.12,-0.43 -0.17,-0.78 0,0 -2.92,-2.6 -3.21,-3 -0.29,-0.4 -0.05,-0.77 0.47,-1.16 z"
             id="path44"
             style="fill:#ffffff;fill-opacity:1;stroke:#000000;stroke-width:1.6;stroke-linejoin:bevel;stroke-dasharray:none;stroke-opacity:1;paint-order:normal" />
        </g>
      </g>
    </g>
    <g
       id="g47"
       style="stroke:#000000;stroke-opacity:1;fill:#ffffff;fill-opacity:1;stroke-width:1.6;stroke-dasharray:none;stroke-linejoin:bevel;paint-order:normal">
      <path
         d="M64.14 38.25c-.24 0-.46 0-.69.01c-17.4.09-28.3 3.36-35.11 7.29c-10.02 5.77-11.22 12.96-11.3 13.52v.04l3.5 1.9s2.37-4.81 5.52-6.94c7.59-5.13 18.07-8.17 37.41-8.29c.24 0 .47-.01.71-.01v-7.52h-.04z"
         fill="#ef5350"
         id="path46"
         style="stroke:#000000;stroke-opacity:1;fill:#ffffff;fill-opacity:1;stroke-width:1.6;stroke-dasharray:none;stroke-linejoin:bevel;paint-order:normal" />
    </g>
    <g
       id="g48"
       style="stroke:#000000;stroke-opacity:1;fill:#ffffff;fill-opacity:1;stroke-width:1.6;stroke-dasharray:none;stroke-linejoin:bevel;paint-order:normal">
      <path
         d="M64.02 38.25c.24 0 .46 0 .69.01c17.4.09 28.3 3.36 35.11 7.29c10.02 5.77 11.22 12.96 11.3 13.52v.04l-2.65 1.9s-3.22-4.81-6.36-6.94c-7.59-5.13-18.07-8.17-37.41-8.29c-.24 0-.47-.01-.72-.01v-7.52h.04z"
         fill="#ef5350"
         id="path47"
         style="stroke:#000000;stroke-opacity:1;fill:#ffffff;fill-opacity:1;stroke-width:1.6;stroke-dasharray:none;stroke-linejoin:bevel;paint-order:normal" />
    </g>
  </g>
</svg>
